<svg height="512" viewBox="0 0 512 512" width="512" xmlns="http://www.w3.org/2000/svg"><g id="Filled_outline" data-name="Filled outline"><path d="m256 288h72v72h-72z" fill="#b0b0ae"/><path d="m488 496h-320v-112l-43.97 81.66a42.485 42.485 0 0 1 -76.88-35.85l43.91-110.34a64.016 64.016 0 0 1 45.59-38.82l111.35-24.65 48 104 48-104 93.47 20.86a62.5 62.5 0 0 1 6.57 1.84 63.994 63.994 0 0 1 43.55 60.64z" fill="#ffb531"/><path d="m488 496h-288.59c55.51-19.75 187.23-79.62 244.63-217.3a63.994 63.994 0 0 1 43.55 60.64z" fill="#ffa912"/><path d="m199.585 224-40 64 48 16-16 24 104.415 32-48-104v-32z" fill="#ffcb73"/><path d="m391.585 224 40 64-48 16 16 24-128 64 72.415-136v-32z" fill="#ffcb73"/><path d="m425.98 180.33a78.018 78.018 0 0 1 -53.32 73.98l-5.07 1.69h-144l-5.08-1.69a77.975 77.975 0 0 1 -36.23-122.68l9.31-11.63a91.117 91.117 0 0 1 63.8-35.98q20.055-2.01 40.19-2t40.2 2a91.165 91.165 0 0 1 63.81 35.98l9.3 11.63a77.98 77.98 0 0 1 17.09 48.7z" fill="#f98500"/><path d="m368 120v88c0 34.37-24.4 63.13-56.71 70.29a72.556 72.556 0 0 1 -15.7 1.71 71.651 71.651 0 0 1 -71.59-72v-88z" fill="#fec9a3"/><path d="m368 120v88c0 34.37-24.4 63.13-56.71 70.29a71.837 71.837 0 0 0 24.71-54.29v-88a72.715 72.715 0 0 0 -1.78-16z" fill="#fec093"/><path d="m368 144v120a40 40 0 0 1 -40 40h-64c-.39 0-.77-.01-1.15-.01a40.013 40.013 0 0 1 -38.85-39.99v-120l40 72a53.36 53.36 0 0 1 64 0l29.6-53.29z" fill="#d6d6d4"/><path d="m368 144v120a40 40 0 0 1 -40 40h-64c-.39 0-.77-.01-1.15-.01a39.628 39.628 0 0 1 -13.76-2.87c66.45-7.69 96.98-35.87 108.51-138.41z" fill="#cfcfcd"/><path d="m256 232h-32a40 40 0 0 1 40-40h32a40 40 0 0 1 -40 40z" fill="#ebebe9"/><path d="m336 232h32a40 40 0 0 0 -40-40h-32a40 40 0 0 0 40 40z" fill="#ebebe9"/><path d="m376 192h-8v-48h8a24 24 0 0 1 24 24 24 24 0 0 1 -24 24z" fill="#feb784"/><path d="m216 144h8v48h-8a24 24 0 0 1 -24-24 24 24 0 0 1 24-24z" fill="#feb784"/><path d="m224 120h144v16h-144z" fill="#fec093"/><path d="m368 96-5.089-36.541a31.718 31.718 0 0 0 -22.774-25.159l-28.859-8.132a57.872 57.872 0 0 0 -15.693-2.168 57.865 57.865 0 0 0 -15.692 2.168l-28.859 8.132a31.718 31.718 0 0 0 -22.774 25.159l-6.26 36.541z" fill="#ffb531"/><path d="m432.161 411.2-.161-27.2h56v38.623c0 14.594-10.533 27.754-25.012 29.229-12.38 1.261-24.851-1.119-35.435-7.806-10.513-6.642-20.84-13.8-32.339-18.66-12.434-5.255-25.979-6.941-39.239-8.832-3.79-.541-11.975-.554-11.975-.554v-24h19.042a134.056 134.056 0 0 1 69.119 19.2z" fill="#95573a"/><path d="m446.4 496h-68.8a9.6 9.6 0 0 1 -9.6-9.6v-38.4a16 16 0 0 1 16-16h56a16 16 0 0 1 16 16v38.4a9.6 9.6 0 0 1 -9.6 9.6z" fill="#fec9a3"/><path d="m440 432h-31.585a16 16 0 0 1 16 16v38.4a9.6 9.6 0 0 1 -9.6 9.6h31.585a9.6 9.6 0 0 0 9.6-9.6v-38.4a16 16 0 0 0 -16-16z" fill="#fec093"/><path d="m84 488a44 44 0 0 1 -44-44v-140h88v140a44 44 0 0 1 -44 44z" fill="#ffb531"/><path d="m135.66 320.13c0 5.57-.18 11.05-.53 16.41-.03.62-.07 1.23-.12 1.84-.03.46-.06.92-.1 1.37-.1 1.31-.21 2.61-.33 3.89-.29 3.11-.63 6.18-1.03 9.19-.1.77-.21 1.53-.32 2.29-.33 2.39-.71 4.75-1.12 7.07-.26 1.49-.53 2.98-.82 4.44-.05.27-.11.53-.16.79-.13.69-.27 1.36-.42 2.04-.18.88-.38 1.76-.57 2.64s-.4 1.74-.61 2.6c-1.01 4.23-2.14 8.32-3.37 12.24l-.63 1.95c-.3.92-.61 1.84-.92 2.74a138.294 138.294 0 0 1 -6.2 15.03c-.33.66-.65 1.31-.98 1.96l-.12.24q-1.425 2.775-2.94 5.33c-.7 1.19-1.41 2.34-2.14 3.45-.36.56-.73 1.11-1.1 1.65-.25.36-.51.73-.76 1.08q-.735 1.05-1.5 2.04c-.38.5-.77.99-1.16 1.48s-.78.95-1.17 1.41c-.3.36-.6.7-.91 1.04-.49.56-.99 1.1-1.49 1.62-.29.31-.59.61-.88.9a48.139 48.139 0 0 1 -5.41 4.67c-.33.24-.67.48-1.01.71-.96.67-1.94 1.28-2.92 1.83-.35.2-.71.39-1.06.57-.33.17-.65.34-.98.48-.29.15-.58.29-.88.41-.38.17-.77.33-1.15.49s-.77.29-1.16.42c-.09.03-.18.07-.27.1-.44.14-.88.28-1.33.41-.36.1-.73.2-1.1.28-.14.04-.28.07-.42.1-.37.09-.75.16-1.13.23a1.127 1.127 0 0 1 -.18.03c-.38.07-.76.13-1.13.17-.12.02-.24.04-.35.05-.45.05-.89.09-1.34.12-.48.04-.96.05-1.44.06-.11.01-.23.01-.34.01-30.93 0-56-53.67-56-119.87 0-23.31 5.52-52.12 11.97-80.13q.93-4.02 1.87-8c1.28-5.4 2.58-10.75 3.87-16 1.33-5.46 2.65-10.81 3.92-16 5.74-23.55 10.37-43.82 10.37-56h48v8c-.42 10.11 3.58 27.4 8.89 48 1.32 5.15 2.73 10.5 4.17 16 .25.97.51 1.94.76 2.92s.52 1.97.77 2.95c.02.07.04.14.06.22.5 1.91.99 3.82 1.49 5.75.35 1.38.71 2.77 1.06 4.16q1.02 3.975 2.02 8c6.79 27.45 12.78 56.29 12.78 80.13z" fill="#4db7e5"/><path d="m135.66 320.13c0 65.96-24.9 119.48-55.66 119.86v-295.99h23.66v8c-.42 10.11 3.58 27.4 8.89 48 1.32 5.15 2.73 10.5 4.17 16 1.36 5.21 2.76 10.57 4.14 16q1.02 3.975 2.02 8c6.79 27.45 12.78 56.29 12.78 80.13z" fill="#5ac6d4"/><path d="m45.29 200c-1.27 5.19-2.59 10.54-3.92 16-1.29 5.25-2.59 10.6-3.87 16h42.5v-32z" fill="#48add9"/><path d="m119.8 227.84q-.75-2.9-1.49-5.75c-.02-.08-.04-.15-.06-.22-.25-.98-.51-1.97-.77-2.95s-.51-1.95-.76-2.92c-1.44-5.5-2.85-10.85-4.17-16h-32.55v32h40.86c-.35-1.39-.71-2.78-1.06-4.16z" fill="#57bfcc"/><path d="m103.656 144h-48l-9.372-9.942a84.535 84.535 0 0 1 -22.628-57.943h4.223c21.927 0 41.971 13.14 51.777 33.943 9.806-20.8 29.851-33.943 51.777-33.943h4.223a84.535 84.535 0 0 1 -22.627 57.943z" fill="#4db7e5"/><rect fill="#fec9a3" height="72" rx="16" width="104" x="24" y="144"/><path d="m112 144h-32a16 16 0 0 1 16 16v40a16 16 0 0 1 -16 16h32a16 16 0 0 0 16-16v-40a16 16 0 0 0 -16-16z" fill="#fec093"/><path d="m399.59 120h-208a91.117 91.117 0 0 1 63.8-35.98q20.055-2.01 40.19-2t40.2 2a91.165 91.165 0 0 1 63.81 35.98z" fill="#ffa912"/><path d="m495.92 495.983-.4-156.623a72.024 72.024 0 0 0 -56.42-70.289l-11.541-2.571-16.976-27.212a85.644 85.644 0 0 0 21.732-42.073 83.352 83.352 0 0 0 1.685-16.815 86.434 86.434 0 0 0 -18.873-53.8l-9.28-11.6c-.032-.039-.068-.073-.1-.112a99.124 99.124 0 0 0 -30.2-26.426l-4.776-29.843a39.967 39.967 0 0 0 -28.4-31.828l-28.928-8.334a66.247 66.247 0 0 0 -35.742.014l-28.831 8.309a40.187 40.187 0 0 0 -28.521 31.829l-4.981 30a99.094 99.094 0 0 0 -30.183 26.591c-.016.021-.027.045-.043.066l-9.069 11.334a85.956 85.956 0 0 0 2.667 110.632c.636.715 1.258 1.394 1.873 2.05l-16.96 27.136-25.106 5.629c-3.326-17.41-7.808-35.383-12.318-52.707a23.891 23.891 0 0 0 9.771-19.34v-40a24.036 24.036 0 0 0 -15.147-22.3 92.04 92.04 0 0 0 23.147-61.585 8 8 0 0 0 -8-8h-4.223c-20.589 0-39.454 9.859-51.777 26.432-12.323-16.573-31.188-26.432-51.777-26.432h-4.223a8 8 0 0 0 -8 8 92.163 92.163 0 0 0 21.736 60 24.031 24.031 0 0 0 -21.736 23.885v40a24.044 24.044 0 0 0 15.916 22.6c-8.332 34.444-15.916 69.636-15.916 97.56 0 32 5.693 62.292 16 85.515v38.325a52.059 52.059 0 0 0 52 52 14.436 14.436 0 0 0 1.811-.09 51.5 51.5 0 0 0 35.489-15.674 52.068 52.068 0 0 0 8.45-11.5l.25.139 29.924-53.959v81.084h16v-112a8 8 0 0 0 -15-3.88l-24.924 44.943v-41.995c5.231-18.923 8-40.64 8-62.908a217.553 217.553 0 0 0 -2.727-32.324l10.754-2.411a8 8 0 0 0 5.042 10.165l38.064 12.687-10.19 15.285a8 8 0 0 0 3.786 11.9l86.107 33.1-10.325 19.724a7.98 7.98 0 0 0 -.905 3.74h-.021l.415 104 16-.064-.395-99.026 123.573-61.787a8 8 0 0 0 3.078-11.593l-10.19-15.285 38.064-12.681a7.981 7.981 0 0 0 5.1-9.961 56.387 56.387 0 0 1 40.29 53.749l.062 28.622h-47.582a8 8 0 0 0 -8 8v13.848a142.724 142.724 0 0 0 -61.28-13.848h-18.72a8 8 0 0 0 -8 8c0 2.4-.663 19.254.063 25a8 8 0 0 0 7.937 7h.169a61.931 61.931 0 0 1 10.287.48s12.5 1.793 17.272 2.669a24.012 24.012 0 0 0 -12.143 20.851v38.4a17.62 17.62 0 0 0 17.6 17.6h68.8a17.621 17.621 0 0 0 17.6-17.6v-26.593l.1-.008a34.435 34.435 0 0 0 16.132-6l.1 50.214zm-77.92-315.583a67.53 67.53 0 0 1 -1.361 13.616 69.85 69.85 0 0 1 -21.65 38.172 68.508 68.508 0 0 1 -19.389 12.449v-44.637a32 32 0 0 0 0-64v-8h20.155l6.878 8.6a70.366 70.366 0 0 1 15.367 43.8zm-127.087 157.408-11.479-25.808h25.015zm-27.313-41.808a32.036 32.036 0 0 1 -32-32v-24h24a47.618 47.618 0 0 0 33.9-14.022 48.432 48.432 0 0 0 6.1-7.509 48.194 48.194 0 0 0 6.1 7.509 47.621 47.621 0 0 0 33.9 14.022h24v24a32.037 32.037 0 0 1 -32 32zm96-168v13.931l-23.72 42.778a48.72 48.72 0 0 0 -8.28-.709h-64a48.625 48.625 0 0 0 -8.279.71l-23.721-42.779v-13.931zm-.141 68.1a48.329 48.329 0 0 0 -8.325-5.911l8.451-15.242s-.045 19.869-.126 21.153zm-22.039 5.42a32.452 32.452 0 0 1 12.763 7.817 32.1 32.1 0 0 1 6.343 9.04 32.672 32.672 0 0 1 2.061 5.623h-22.987a31.724 31.724 0 0 1 -22.583-9.336 32.222 32.222 0 0 1 -7.582-12.05c-.31-.847-.582-1.721-.816-2.614h22.981a31.161 31.161 0 0 1 9.82 1.52zm38.18-49.52a16 16 0 0 1 0 32zm-144 22.923 8.466 15.268a48.365 48.365 0 0 0 -8.326 5.912c-.085-1.355-.14-21.179-.14-21.179zm3.075 43.449a32.077 32.077 0 0 1 6.342-9.036 32.433 32.433 0 0 1 12.746-7.813 31.222 31.222 0 0 1 9.837-1.523h22.977q-.36 1.377-.844 2.7a32.1 32.1 0 0 1 -7.55 11.96 31.715 31.715 0 0 1 -22.583 9.34h-22.987a32.725 32.725 0 0 1 2.062-5.627zm1.451-157.1a23.8 23.8 0 0 1 17.129-19.1l28.863-8.315a49.013 49.013 0 0 1 13.482-1.857 49.779 49.779 0 0 1 13.465 1.848l28.912 8.329a23.9 23.9 0 0 1 17 19.007l3.123 19.508a98.637 98.637 0 0 0 -21.52-4.632q-16.428-1.644-33-1.955v-26.105h-16v26.105q-16.539.319-32.994 1.955a98.608 98.608 0 0 0 -21.7 4.691zm20.057 30.71a397.091 397.091 0 0 1 78.805 0 83.314 83.314 0 0 1 46.283 20.018h-171.371a83.32 83.32 0 0 1 46.283-20.021zm-81.621 102.033a69.638 69.638 0 0 1 14-57.418l6.877-8.6h20.161v8h-.015a32 32 0 0 0 0 64h.015v44.657a68.779 68.779 0 0 1 -19.389-12.469c-.032-.03-.065-.058-.1-.087a65.652 65.652 0 0 1 -5.394-5.472 70.011 70.011 0 0 1 -16.155-32.611zm41.023-42.015v32a16 16 0 0 1 0-32zm-142.821-38.531a8 8 0 0 0 14.472 0c7.9-16.753 23.1-27.635 40.329-29.167a76.624 76.624 0 0 1 -20.012 44.268l-7 7.43h-41.1l-7-7.429a76.624 76.624 0 0 1 -20.018-44.271c17.23 1.534 32.431 12.416 40.329 29.169zm-40.764 46.531a8.009 8.009 0 0 1 8-8h72a8.009 8.009 0 0 1 8 8v40a7.96 7.96 0 0 1 -6.169 7.791c-.594.139-72.07.209-72.07.209h-1.761a8.009 8.009 0 0 1 -8-8zm16.041 64h23.959v96h16v-96h22.909c5.084 19.554 10.108 39.9 13.374 59.077a216.168 216.168 0 0 1 3.717 37.083 245.742 245.742 0 0 1 -1.587 28.029 63.816 63.816 0 0 0 -72.9-1.475l-9.946 6.63 8.876 13.312 9.946-6.63a47.787 47.787 0 0 1 60.3 5.971 7.961 7.961 0 0 0 .8.69c-.925 4.517-1.983 8.907-3.179 13.131-8.991 31.7-24.81 52.182-40.31 52.182a18.829 18.829 0 0 1 -4.191-.494l25.848-25.849-11.314-11.314-28.559 28.557a56.745 56.745 0 0 1 -5.052-5.926 85.825 85.825 0 0 1 -9.462-16.315c-9.847-21.438-15.27-50.028-15.27-80.499 0-26.848 7.716-61.914 16.041-96.16zm37.205 255.92h-.126a7.886 7.886 0 0 0 -1.129.08 36.039 36.039 0 0 1 -35.991-36v-12.411c9.539 10.761 20.5 16.411 32 16.411 15.034 0 28.951-9.736 40-27.165v23.165a35.692 35.692 0 0 1 -34.754 35.92zm129.921-178.52a8 8 0 0 0 -5.037-4.993l-38.366-12.788 21.016-33.619a85.257 85.257 0 0 0 22.82 11.784v2.216a48.049 48.049 0 0 0 46.3 47.957l18.51 41.615-76.61-29.452 10.455-15.682a8 8 0 0 0 .912-7.038zm165.9-4.993a8 8 0 0 0 -4.126 12.028l10.975 16.465-97.753 48.877 7.241-13.816a7.4 7.4 0 0 0 .312-.675l24.802-47.286h5.082a48.054 48.054 0 0 0 48-48v-2.239a85 85 0 0 0 22.813-11.752l17.359 27.825a7.7 7.7 0 0 0 .592.823l3.086 4.96zm66.518 181.993a1.6 1.6 0 0 1 -1.6 1.6h-68.8a1.6 1.6 0 0 1 -1.6-1.6v-38.4a8.009 8.009 0 0 1 8-8h56a8.009 8.009 0 0 1 8 8zm15.609-42.686a24.035 24.035 0 0 0 -23.609-19.714h-29.4c-6.81-4.625-21.81-15.125-58.61-15.625 0-2.59.105-5.525.209-8.16 0-.071 0-.144.008-.215h10.928a126.831 126.831 0 0 1 65.168 18.062 8 8 0 0 0 12.112-6.862v-19.2h39.63l.13 33.36v.084c-1.155 9.381-7.996 16.856-16.566 18.27z"/><path d="m259.585 160a12 12 0 1 0 -12-12 12.013 12.013 0 0 0 12 12z"/><path d="m331.585 160a12 12 0 1 0 -12-12 12.013 12.013 0 0 0 12 12z"/><path d="m307.585 424a12 12 0 1 0 -12-12 12.013 12.013 0 0 0 12 12z"/><path d="m308 472a12 12 0 1 0 12 12 12.013 12.013 0 0 0 -12-12z"/><path d="m68 400a12 12 0 1 0 -12-12 12.013 12.013 0 0 0 12 12z"/></g></svg>